<?xml version="1.0" encoding="iso-8859-1"?>
<!DOCTYPE svg PUBLIC "-//W3C//DTD SVG 1.1 Basic//EN" "http://www.w3.org/Graphics/SVG/1.1/DTD/svg11-basic.dtd">
<svg version="1.1" baseProfile="basic"
   xmlns="http://www.w3.org/2000/svg" xmlns:xlink="http://www.w3.org/1999/xlink" x="0px" y="0px" width="32px" height="32px"
   viewBox="0 0 32 32" xml:space="preserve">
  <path transform="matrix(0.032,0,0,0.032,0,0)" stroke="none" style="fill:#777777" d="M 500 0 C 364 0 347 0 293 3 C 240 5 204 13 172 26 C 139 39 111 56 83 83 C 56 111 39 139 26 172 C 13 204 5 240 3 293 C 0 347 0 364 0 499 C 0 635 0 652 3 706 C 5 759 13 795 26 827 C 39 860 56 888 83 916 C 111 943 139 960 172 973 C 204 986 240 994 293 996 C 347 999 364 999 500 999 C 635 999 652 999 706 996 C 759 994 795 986 827 973 C 860 960 888 943 916 916 C 943 888 960 860 973 827 C 986 795 994 759 996 706 C 999 652 999 635 999 499 C 999 364 999 347 996 293 C 994 240 986 204 973 172 C 960 139 943 111 916 83 C 888 56 860 39 827 26 C 795 13 759 5 706 3 C 652 0 635 0 500 0 z M 500 90 C 633 90 649 90 702 93 C 750 95 777 103 794 110 C 818 119 834 130 852 147 C 869 165 880 181 889 205 C 896 222 904 249 906 297 C 909 350 909 366 909 499 C 909 633 909 649 906 702 C 904 750 896 777 889 794 C 880 818 869 834 852 852 C 834 869 818 880 794 889 C 777 896 750 904 702 906 C 649 909 633 909 500 909 C 366 909 350 909 297 906 C 249 904 222 896 205 889 C 181 880 165 869 147 852 C 130 834 119 818 110 794 C 103 777 95 750 93 702 C 90 649 90 633 90 499 C 90 366 90 350 93 297 C 95 249 103 222 110 205 C 119 181 130 165 147 147 C 165 130 181 119 205 110 C 222 103 249 95 297 93 C 350 90 366 90 500 90 M 500 666 C 407 666 333 592 333 499 C 333 407 407 333 500 333 C 592 333 666 407 666 499 C 666 592 592 666 500 666 z M 500 243 C 358 243 243 358 243 499 C 243 641 358 756 500 756 C 641 756 756 641 756 499 C 756 358 641 243 500 243 M 826 233 C 826 266 800 293 766 293 C 733 293 706 266 706 233 C 706 199 733 173 766 173 C 800 173 826 199 826 233"/>
</svg>