<?xml version="1.0" standalone="no"?>
<!DOCTYPE svg PUBLIC "-//W3C//DTD SVG 20010904//EN"
 "http://www.w3.org/TR/2001/REC-SVG-20010904/DTD/svg10.dtd">
<svg version="1.0" xmlns="http://www.w3.org/2000/svg"
 width="1920.000000pt" height="485.000000pt" viewBox="0 0 1920.000000 485.000000"
 preserveAspectRatio="xMidYMid meet">
<metadata>
Created by potrace 1.15, written by Peter Selinger 2001-2017
</metadata>
<g transform="translate(0.000000,485.000000) scale(0.100000,-0.100000)"
fill="#000000" stroke="none">
<path d="M13515 4514 c-243 -29 -383 -85 -511 -207 -123 -116 -174 -243 -174
-432 0 -186 45 -300 167 -422 61 -62 88 -80 195 -131 67 -33 191 -83 273 -112
295 -103 365 -151 372 -253 7 -85 -40 -141 -128 -153 -115 -16 -212 58 -234
179 l-7 37 -320 0 -319 0 6 -47 c27 -200 111 -356 248 -459 175 -131 345 -179
627 -178 157 0 197 4 265 22 320 87 505 311 505 612 0 159 -37 272 -125 382
-94 117 -208 182 -530 303 -286 107 -342 145 -352 239 -10 89 43 146 139 146
94 0 155 -50 180 -147 l10 -43 319 0 319 0 0 31 c0 58 -32 175 -70 254 -103
214 -311 341 -615 375 -87 9 -177 11 -240 4z"/>
<path d="M10589 4475 c-409 -77 -711 -389 -796 -824 -25 -126 -22 -376 4 -502
42 -198 133 -375 262 -511 135 -143 280 -228 481 -284 53 -15 101 -19 260 -18
230 0 293 13 455 93 282 139 462 374 536 701 28 122 35 348 16 475 -47 303
-200 562 -423 716 -69 47 -219 115 -309 139 -105 28 -372 37 -486 15z m366
-130 c264 -46 474 -199 599 -436 81 -153 116 -306 116 -502 0 -298 -96 -538
-288 -719 -255 -240 -652 -294 -977 -134 -332 164 -515 537 -475 964 29 308
162 549 384 696 114 76 225 118 366 139 62 10 195 6 275 -8z"/>
<path d="M14730 3415 l0 -1065 300 0 300 0 0 354 0 353 233 6 c268 6 333 18
482 91 247 122 380 367 361 666 -7 122 -26 195 -77 297 -90 186 -256 303 -489
347 -68 13 -171 16 -596 16 l-514 0 0 -1065z m947 561 c87 -36 129 -118 120
-232 -6 -81 -38 -138 -97 -172 -43 -26 -53 -27 -207 -30 l-163 -4 0 232 0 232
153 -4 c114 -4 163 -9 194 -22z"/>
<path d="M6453 3728 c3 -705 5 -748 24 -833 66 -292 226 -467 494 -541 91 -26
356 -26 449 -1 120 33 208 84 296 172 118 118 178 254 204 465 6 51 10 362 10
782 l0 698 -75 0 -74 0 -3 -752 c-4 -739 -4 -754 -26 -831 -60 -214 -191 -350
-389 -402 -77 -20 -259 -20 -338 0 -206 53 -335 186 -397 410 -22 79 -23 90
-26 828 l-3 747 -75 0 -75 0 4 -742z"/>
<path d="M8200 4410 l0 -60 305 0 305 0 0 -1000 0 -1000 75 0 75 0 0 1000 0
1000 300 0 300 0 0 60 0 60 -680 0 -680 0 0 -60z"/>
<path d="M17222 4388 c-17 -46 -190 -519 -386 -1051 -196 -533 -356 -973 -356
-978 0 -5 128 -9 314 -9 l315 0 58 175 58 175 372 0 372 0 58 -175 58 -175
318 0 c251 0 318 3 315 13 -3 6 -177 483 -388 1060 l-383 1047 -348 0 -347 0
-30 -82z m491 -910 l105 -318 -219 0 c-120 0 -219 3 -219 8 -1 20 216 640 221
634 4 -4 54 -150 112 -324z"/>
<path d="M4825 3393 c-214 -564 -392 -1030 -393 -1035 -2 -5 33 -8 80 -6 l83
3 102 270 101 270 498 0 497 0 101 -272 101 -273 78 0 c42 0 77 3 77 8 0 4
-174 469 -387 1035 l-388 1027 -80 0 -80 0 -390 -1027z m700 223 c118 -318
215 -583 215 -587 0 -5 -202 -9 -449 -9 l-448 0 226 604 c152 407 228 599 233
588 4 -9 105 -278 223 -596z"/>
<path d="M6517 1620 c-93 -24 -182 -101 -205 -178 -19 -62 -15 -160 9 -212 41
-91 79 -116 288 -191 156 -56 203 -85 231 -143 26 -54 25 -91 -2 -146 -74
-146 -333 -102 -373 63 -7 27 -8 27 -86 27 l-78 0 5 -32 c24 -129 129 -228
276 -259 72 -16 204 -6 259 18 114 50 169 138 169 269 0 66 -4 89 -26 132 -32
64 -90 111 -176 142 -35 13 -106 39 -158 58 -148 54 -190 95 -190 189 0 63 28
109 83 133 112 51 256 -6 282 -112 7 -28 8 -28 86 -28 76 0 79 1 79 23 0 40
-59 144 -100 177 -70 55 -125 73 -235 76 -55 2 -117 -1 -138 -6z"/>
<path d="M10083 1615 c-168 -45 -298 -167 -355 -332 -19 -58 -23 -88 -23 -198
0 -110 4 -140 23 -198 76 -217 261 -347 497 -347 154 0 276 51 374 156 115
122 164 282 142 461 -18 150 -68 252 -168 343 -67 61 -130 95 -215 115 -78 18
-206 18 -275 0z m253 -140 c162 -48 258 -193 258 -390 0 -190 -87 -327 -244
-386 -81 -31 -214 -24 -292 14 -126 62 -208 208 -208 372 0 235 152 403 366
405 39 0 93 -7 120 -15z"/>
<path d="M4460 1084 l0 -535 263 3 c304 5 330 10 408 88 129 129 94 363 -66
440 l-46 22 41 20 c82 41 123 116 123 225 1 144 -80 237 -227 262 -34 6 -160
11 -279 11 l-217 0 0 -536z m490 384 c57 -30 83 -73 83 -143 0 -68 -26 -113
-83 -145 -40 -22 -59 -24 -192 -28 l-148 -4 0 171 0 171 148 0 c133 0 152 -2
192 -22z m18 -458 c77 -44 109 -132 78 -214 -36 -94 -90 -118 -288 -124 l-148
-4 0 187 0 187 158 -4 c145 -3 160 -5 200 -28z"/>
<path d="M5670 1085 l0 -535 75 0 75 0 0 535 0 535 -75 0 -75 0 0 -535z"/>
<path d="M7400 1560 l0 -60 150 0 150 0 0 -475 0 -475 70 0 70 0 0 475 0 475
150 0 150 0 0 60 0 60 -370 0 -370 0 0 -60z"/>
<path d="M8560 1086 l0 -536 75 0 75 0 0 215 0 216 72 -3 72 -3 136 -212 135
-213 83 0 c45 0 82 2 82 4 0 3 -63 100 -140 217 l-139 213 55 17 c106 33 178
101 204 193 7 28 11 78 8 128 -7 137 -67 223 -188 270 -49 19 -79 22 -292 26
l-238 4 0 -536z m480 374 c59 -32 90 -92 90 -170 0 -78 -31 -138 -90 -170 -41
-22 -59 -25 -187 -28 l-143 -4 0 202 0 202 143 -4 c128 -3 146 -6 187 -28z"/>
</g>
</svg>
