<?xml version="1.0" encoding="iso-8859-1"?>
<!DOCTYPE svg PUBLIC "-//W3C//DTD SVG 1.1 Basic//EN" "http://www.w3.org/Graphics/SVG/1.1/DTD/svg11-basic.dtd">
<svg version="1.1" baseProfile="basic"
   xmlns="http://www.w3.org/2000/svg" xmlns:xlink="http://www.w3.org/1999/xlink" x="0px" y="0px" width="32px" height="32px"
   viewBox="0 0 32 32" xml:space="preserve">
  <path transform="matrix(0.032,0,0,0.032,1,0)" stroke="none" style="fill:#CD362C" d="M 20 259 L 128 886 C 128 949 268 1000 441 1000 C 614 1000 754 949 754 886 L 862 259 C 777 324 608 357 441 357 C 274 357 106 324 20 259 z M 257 852 L 205 433 L 243 433 L 294 852 L 257 852 z M 639 433 L 677 433 L 626 852 L 588 852 L 639 433 z M 460 887 L 423 887 L 423 477 L 460 477 L 460 887 z M 326 198 L 363 198 L 363 115 C 363 72 398 37 441 37 C 484 37 519 72 519 115 L 519 198 L 556 198 L 556 115 C 556 51 505 0 441 0 C 378 0 326 51 326 115 L 326 198 z M 441 319 C 685 319 883 248 883 160 C 883 85 740 22 547 5 C 576 33 594 72 594 115 L 594 198 L 594 236 L 556 236 L 519 236 L 482 236 L 482 198 L 482 115 C 482 93 463 75 441 75 C 419 75 401 93 401 115 L 401 198 L 401 236 L 363 236 L 326 236 L 289 236 L 289 198 L 289 115 C 289 72 307 33 336 5 C 143 22 0 85 0 160 C 0 248 197 319 441 319 z"/>
</svg>